<?xml version="1.0" encoding="utf-8"?>
<!-- Generator: Adobe Illustrator 27.8.1, SVG Export Plug-In . SVG Version: 6.00 Build 0)  -->
<svg version="1.1" id="Слой_1" xmlns="http://www.w3.org/2000/svg" xmlns:xlink="http://www.w3.org/1999/xlink" x="0px" y="0px"
	 viewBox="0 0 24 24" style="enable-background:new 0 0 24 24;" xml:space="preserve">
<style type="text/css">
	.st0{clip-path:url(#SVGID_00000100341817251606495510000003454253017543866250_);}
	.st1{fill:none;stroke:#1A74FF;stroke-linecap:round;stroke-linejoin:round;}
</style>
<g>
	<g>
		<defs>
			<path id="SVGID_1_" d="M12,0.1L12,0.1c6.6,0,12,5.4,12,12l0,0c0,6.6-5.4,12-12,12l0,0c-6.6,0-12-5.4-12-12l0,0
				C0,5.4,5.4,0.1,12,0.1z"/>
		</defs>
		<clipPath id="SVGID_00000044160230072907071920000012784355204053534130_">
			<use xlink:href="#SVGID_1_"  style="overflow:visible;"/>
		</clipPath>
		<g style="clip-path:url(#SVGID_00000044160230072907071920000012784355204053534130_);">
			<path class="st1" d="M7.6,12.6h8.8 M16.4,12.6l-3.9-3.8 M16.4,12.6l-3.9,3.8"/>
			<path class="st1" d="M12,23.6c6.1,0,11-4.9,11-11s-4.9-11-11-11S1,6.5,1,12.6C1,18.6,5.9,23.6,12,23.6z"/>
		</g>
	</g>
</g>
</svg>
