<?xml version="1.0" encoding="utf-8"?>
<!-- Generator: Adobe Illustrator 27.8.1, SVG Export Plug-In . SVG Version: 6.00 Build 0)  -->
<svg version="1.1" id="Слой_1" xmlns="http://www.w3.org/2000/svg" xmlns:xlink="http://www.w3.org/1999/xlink" x="0px" y="0px"
	 viewBox="0 0 24 24" style="enable-background:new 0 0 24 24;" xml:space="preserve">
<style type="text/css">
	.st0{clip-path:url(#SVGID_00000123406369464737182610000011111560291206022569_);}
	.st1{fill:none;stroke:#FFFFFF;stroke-linecap:round;stroke-linejoin:round;}
</style>
<g>
	<defs>
		<path id="SVGID_1_" d="M11.99,0.06L11.99,0.06c6.63,0,12,5.37,12,12l0,0c0,6.63-5.37,12-12,12l0,0c-6.63,0-12-5.37-12-12l0,0
			C-0.01,5.43,5.36,0.06,11.99,0.06z"/>
	</defs>
	<clipPath id="SVGID_00000054263572570975745530000015744424593601372557_">
		<use xlink:href="#SVGID_1_"  style="overflow:visible;"/>
	</clipPath>
	<g style="clip-path:url(#SVGID_00000054263572570975745530000015744424593601372557_);">
		<path class="st1" d="M7.59,12.56h8.8 M16.39,12.56l-3.85-3.85 M16.39,12.56l-3.85,3.85"/>
		<path class="st1" d="M11.99,23.56c6.08,0,11-4.92,11-11c0-6.08-4.92-11-11-11c-6.08,0-11,4.92-11,11
			C0.99,18.63,5.91,23.56,11.99,23.56z"/>
	</g>
</g>
</svg>
