<?xml version="1.0" encoding="utf-8"?>
<!-- Generator: Adobe Illustrator 27.8.1, SVG Export Plug-In . SVG Version: 6.00 Build 0)  -->
<svg version="1.1" id="Слой_1" xmlns="http://www.w3.org/2000/svg" xmlns:xlink="http://www.w3.org/1999/xlink" x="0px" y="0px"
	 viewBox="0 0 24 24" style="enable-background:new 0 0 24 24;" xml:space="preserve">
<style type="text/css">
	.st0{clip-path:url(#SVGID_00000073718421773077546520000007020847285541368198_);}
	.st1{fill:#FFFFFF;}
</style>
<g>
	<defs>
		<rect id="SVGID_1_" x="-0.01" y="0.06" width="24" height="24"/>
	</defs>
	<clipPath id="SVGID_00000097498079425718911890000018246266371427368606_">
		<use xlink:href="#SVGID_1_"  style="overflow:visible;"/>
	</clipPath>
	<g style="clip-path:url(#SVGID_00000097498079425718911890000018246266371427368606_);">
		<path class="st1" d="M12.74,24.06h-1.51c-1.22,0-2.21-0.99-2.21-2.21v-0.51C8.5,21.17,8,20.96,7.52,20.71l-0.36,0.36
			c-0.87,0.88-2.28,0.85-3.12,0l-1.06-1.06c-0.85-0.85-0.88-2.25,0-3.12l0.36-0.36c-0.25-0.48-0.46-0.99-0.62-1.5H2.19
			c-1.22,0-2.21-0.99-2.21-2.21V11.3c0-1.22,0.99-2.21,2.21-2.21H2.7c0.17-0.52,0.37-1.02,0.62-1.5L2.97,7.23
			c-0.87-0.87-0.85-2.27,0-3.12l1.06-1.06c0.85-0.85,2.25-0.87,3.12,0L7.52,3.4C8,3.15,8.5,2.94,9.02,2.78V2.27
			c0-1.22,0.99-2.21,2.21-2.21h1.51c1.22,0,2.21,0.99,2.21,2.21v0.51c0.52,0.17,1.02,0.37,1.5,0.62l0.36-0.36
			c0.87-0.88,2.28-0.85,3.12,0L21,4.1c0.85,0.85,0.88,2.25,0,3.12l-0.36,0.36c0.25,0.48,0.46,0.99,0.62,1.5h0.51
			c1.22,0,2.21,0.99,2.21,2.21v1.51c0,1.22-0.99,2.21-2.21,2.21h-0.51c-0.17,0.52-0.37,1.02-0.62,1.5L21,16.89
			c0.87,0.87,0.85,2.27,0,3.12l-1.06,1.06c-0.85,0.85-2.25,0.87-3.12,0l-0.36-0.36c-0.48,0.25-0.99,0.46-1.5,0.62v0.51
			C14.95,23.07,13.96,24.06,12.74,24.06z M7.75,19.24c0.67,0.4,1.39,0.7,2.15,0.89c0.31,0.08,0.53,0.36,0.53,0.68v1.04
			c0,0.44,0.36,0.8,0.8,0.8h1.51c0.44,0,0.8-0.36,0.8-0.8v-1.04c0-0.32,0.22-0.6,0.53-0.68c0.75-0.19,1.48-0.49,2.15-0.89
			c0.28-0.16,0.63-0.12,0.86,0.11l0.74,0.74c0.32,0.32,0.83,0.31,1.14,0l1.07-1.07c0.31-0.31,0.32-0.82,0-1.14l-0.74-0.74
			c-0.23-0.23-0.27-0.58-0.11-0.86c0.4-0.67,0.7-1.39,0.89-2.15c0.08-0.31,0.36-0.53,0.68-0.53h1.04c0.44,0,0.8-0.36,0.8-0.8V11.3
			c0-0.44-0.36-0.8-0.8-0.8h-1.04c-0.32,0-0.6-0.22-0.68-0.53c-0.19-0.75-0.49-1.48-0.89-2.15C19,7.55,19.05,7.2,19.27,6.97
			l0.74-0.74c0.32-0.32,0.31-0.83,0-1.14l-1.07-1.07c-0.31-0.31-0.82-0.32-1.14,0l-0.74,0.74C16.85,5,16.49,5.04,16.22,4.88
			c-0.67-0.4-1.39-0.7-2.15-0.89c-0.31-0.08-0.53-0.36-0.53-0.68V2.27c0-0.44-0.36-0.8-0.8-0.8h-1.51c-0.44,0-0.8,0.36-0.8,0.8V3.3
			c0,0.32-0.22,0.6-0.53,0.68C9.15,4.18,8.42,4.48,7.75,4.88C7.48,5.04,7.13,5,6.9,4.77L6.16,4.03c-0.32-0.32-0.83-0.31-1.14,0
			L3.96,5.1c-0.31,0.31-0.32,0.82,0,1.14L4.7,6.97C4.92,7.2,4.97,7.55,4.81,7.83c-0.4,0.67-0.7,1.39-0.89,2.15
			c-0.08,0.31-0.36,0.53-0.68,0.53H2.19c-0.44,0-0.8,0.36-0.8,0.8v1.51c0,0.44,0.36,0.8,0.8,0.8h1.04c0.32,0,0.6,0.22,0.68,0.53
			c0.19,0.75,0.49,1.48,0.89,2.15c0.16,0.28,0.12,0.63-0.11,0.86l-0.74,0.74c-0.32,0.32-0.31,0.83,0,1.14l1.07,1.07
			c0.31,0.31,0.82,0.32,1.14,0l0.74-0.74C7.07,19.18,7.41,19.04,7.75,19.24z"/>
		<path class="st1" d="M11.99,17.28c-2.88,0-5.22-2.34-5.22-5.22c0-2.88,2.34-5.22,5.22-5.22c2.88,0,5.22,2.34,5.22,5.22
			C17.21,14.94,14.86,17.28,11.99,17.28z M11.99,8.24c-2.1,0-3.82,1.71-3.82,3.82c0,2.1,1.71,3.82,3.82,3.82
			c2.1,0,3.82-1.71,3.82-3.82C15.8,9.95,14.09,8.24,11.99,8.24z"/>
	</g>
</g>
</svg>
