<?xml version="1.0" encoding="utf-8"?>
<!-- Generator: Adobe Illustrator 27.8.1, SVG Export Plug-In . SVG Version: 6.00 Build 0)  -->
<svg version="1.1" id="Слой_1" xmlns="http://www.w3.org/2000/svg" xmlns:xlink="http://www.w3.org/1999/xlink" x="0px" y="0px"
	 viewBox="0 0 24 24" style="enable-background:new 0 0 24 24;" xml:space="preserve">
<style type="text/css">
	.st0{clip-path:url(#SVGID_00000004514854789322811490000013826611227948761778_);}
	.st1{fill:none;stroke:#FFFFFF;stroke-linecap:round;stroke-linejoin:round;}
</style>
<g>
	<defs>
		<path id="SVGID_1_" d="M11.99,0.06L11.99,0.06c6.63,0,12,5.37,12,12l0,0c0,6.63-5.37,12-12,12l0,0c-6.63,0-12-5.37-12-12l0,0
			C-0.01,5.43,5.36,0.06,11.99,0.06z"/>
	</defs>
	<clipPath id="SVGID_00000108308141507194781070000002915614162219605685_">
		<use xlink:href="#SVGID_1_"  style="overflow:visible;"/>
	</clipPath>
	<g style="clip-path:url(#SVGID_00000108308141507194781070000002915614162219605685_);">
		<path class="st1" d="M11.99,1.56c-6.08,0-11,4.92-11,11c0,6.08,4.92,11,11,11c6.08,0,11-4.92,11-11
			C22.99,6.48,18.06,1.56,11.99,1.56z"/>
		<path class="st1" d="M3.48,19.54c0,0,2.45-3.13,8.5-3.13c6.05,0,8.5,3.13,8.5,3.13"/>
		<path class="st1" d="M11.99,12.56c1.82,0,3.3-1.48,3.3-3.3c0-1.82-1.48-3.3-3.3-3.3c-1.82,0-3.3,1.48-3.3,3.3
			C8.69,11.08,10.16,12.56,11.99,12.56z"/>
	</g>
</g>
</svg>
